<svg xmlns="http://www.w3.org/2000/svg" xmlns:svg="http://www.w3.org/2000/svg" id="svg2" width="646" height="220" version="1.1" xml:space="preserve"><metadata id="metadata8"/><defs id="defs6"><clipPath id="clipPath18"><path id="path20" d="m 0,0 2660.97,0 0,828 L 0,828 0,0 z"/></clipPath></defs><g id="g10" transform="matrix(2.2683682,0,0,-2.2683682,21.197014,203.91044)"><g id="g12" transform="scale(0.1,0.1)"><g id="g14"><g id="g16" clip-path="url(#clipPath18)"><path id="path22" d="m 605.324,220.422 c -17.871,-15.539 -39.23,-22.926 -58.265,-22.926 -59.825,0 -91.289,40.399 -91.289,96.727 0,53.996 44.671,94.394 94.007,94.394 18.645,0 33.797,-3.5 48.946,-7.769 -1.168,-16.317 -0.782,-32.246 0,-47.395 l -5.442,0 c -6.605,21.367 -22.918,35.738 -45.445,35.738 -26.805,0 -58.66,-20.589 -58.66,-76.523 0,-45.449 31.082,-71.086 63.711,-71.086 20.586,0 40.785,10.879 55.933,23.699 l -3.496,-24.859" style="fill:#555658;fill-opacity:1;fill-rule:nonzero;stroke:none"/><path id="path24" d="m 724.961,219.254 c 37.684,0 55.551,33.016 55.551,66.422 0,34.187 -15.539,81.183 -59.824,81.183 -25.637,0 -59.043,-17.089 -59.043,-65.644 0,-39.625 20.199,-81.961 63.316,-81.961 z m -2.719,169.363 c 58.653,0 91.676,-47.394 91.676,-95.558 0,-61.375 -40.785,-95.563 -94.395,-95.563 -54.378,0 -91.285,40.399 -91.285,96.727 0,53.996 39.625,94.394 94.004,94.394" style="fill:#555658;fill-opacity:1;fill-rule:nonzero;stroke:none"/><path id="path26" d="m 864.027,350.547 c 0,13.211 -4.66,16.703 -17.867,17.48 l 0,3.11 c 17.094,5.051 38.457,12.429 52.442,17.48 -0.778,-8.547 -1.161,-21.758 -1.161,-31.078 l 0.774,0 c 10.097,19.031 28.746,31.078 49.723,31.078 37.289,0 62.152,-21.758 62.152,-68.367 l 0,-95.168 c 0,-11.656 3.1,-16.707 17.86,-18.258 l 0,-5.441 c -7.37,0.781 -17.86,2.332 -26.8,2.332 -6.599,0 -19.806,-1.551 -26.802,-2.332 0.777,7.769 2.336,16.703 2.336,25.25 l 0,99.832 c 0,28.746 -14.766,38.066 -33.024,38.066 -25.637,0 -46.219,-22.531 -46.219,-55.547 l 0,-87.402 c 0,-9.32 10.094,-13.594 20.973,-14.758 l 0,-5.441 c -13.211,1.164 -23.699,2.332 -37.68,2.332 -13.98,0 -24.468,-1.168 -37.683,-2.332 l 0,5.441 c 10.879,1.164 20.976,5.438 20.976,14.758 l 0,128.965" style="fill:#555658;fill-opacity:1;fill-rule:nonzero;stroke:none"/><path id="path28" d="m 1061.76,251.492 4.66,0 c 13.59,-29.137 36.9,-34.57 61.76,-34.57 29.52,0 37.26,14.312 45.06,29.519 2.31,4.504 -9.71,23.7 -55.55,33.024 -36.51,7.379 -57.1,22.918 -57.1,50.496 0,34.57 29.91,58.656 80.02,58.656 17.09,0 34.18,-4.66 50.89,-7.383 l 0,-43.504 -5.44,0 c -6.99,20.973 -25.64,31.461 -47.78,31.461 -27.97,0 -46.62,-11.652 -46.62,-32.238 0,-18.258 16.71,-22.918 50.5,-29.137 40.79,-7.769 59.82,-18.257 59.82,-52.437 0,-36.516 -29.91,-57.883 -80.8,-57.883 -19.41,0 -39.23,4.668 -56.32,13.598 l -3.1,40.398" style="fill:#555658;fill-opacity:1;fill-rule:nonzero;stroke:none"/><path id="path30" d="m 1252.48,350.547 c 0,13.211 -4.67,16.703 -17.87,17.48 l 0,3.11 c 17.09,5.051 38.46,12.429 52.44,17.48 -0.78,-8.547 -1.16,-21.758 -1.16,-34.965 l 0,-106.82 c 0,-12.039 6.99,-25.25 27.58,-25.25 33.79,0 51.66,30.301 51.66,79.242 l 0,49.723 c 0,13.211 -4.66,16.703 -17.87,17.48 l 0,3.11 c 17.09,5.051 38.45,12.429 52.44,17.48 -0.78,-8.547 -1.16,-21.758 -1.16,-34.965 l 0,-128.57 c 0,-11.656 3.1,-16.707 17.86,-18.258 l 0,-5.441 c -7.38,0.781 -17.86,2.332 -26.8,2.332 -6.6,0 -19.81,-1.551 -26.8,-2.332 0.77,7.769 2.33,16.703 2.33,25.25 l 0,10.879 -0.78,0 c -9.32,-25.25 -28.74,-40.016 -57.1,-40.016 -25.25,0 -54.77,14.371 -54.77,56.328 l 0,96.723" style="fill:#555658;fill-opacity:1;fill-rule:nonzero;stroke:none"/><path id="path32" d="m 1470.79,450.77 c -1.15,40.433 5.07,41.613 -5.42,44.718 -2.73,0.778 26.79,-13.648 40.77,-8.211 -0.78,-18.25 -1.94,-36.507 -1.94,-54.765 l 0,-210.93 c 0,-9.32 10.1,-13.594 20.97,-14.758 l 0,-5.441 c -13.2,1.164 -23.69,2.332 -37.67,2.332 -13.99,0 -24.48,-1.168 -37.69,-2.332 l 0,5.441 c 10.88,1.164 20.98,5.438 20.98,14.758 l 0,229.188" style="fill:#555658;fill-opacity:1;fill-rule:nonzero;stroke:none"/><path id="path34" d="m 1551.2,384.73 25.25,0 0,30.692 c 14.76,5.043 25.64,15.144 33.41,25.633 l 0,-56.325 52.83,0 0,-19.421 -52.83,0 0,-115.758 c 0,-17.867 3.1,-32.629 20.98,-32.629 12.04,0 23.3,4.273 33.4,11.652 l -3.5,-22.14 c -11.65,-5.438 -24.08,-8.938 -36.9,-8.938 -35.35,0 -47.39,15.156 -47.39,48.563 l 0,119.25 -25.25,0 0,19.421" style="fill:#555658;fill-opacity:1;fill-rule:nonzero;stroke:none"/><path id="path36" d="m 1757.85,286.449 c -27.19,-4.66 -38.45,-15.922 -38.45,-34.566 0,-21.363 14.76,-30.301 34.96,-30.301 36.9,0 52.44,39.234 52.44,65.648 l 0,7.774 -48.95,-8.555 z m -50.11,91.289 c 18.65,7.77 38.85,10.879 58.66,10.879 42.34,0 73.41,-17.871 73.41,-67.594 l 0,-91.671 c 0,-12.817 1.56,-21.754 15.93,-22.528 l 0,-5.441 c -8.16,0.781 -15.93,2.332 -24.08,2.332 -7.38,0 -15.15,-1.551 -22.92,-2.332 l 0,36.902 -0.78,0 c -13.21,-28.351 -33.79,-40.789 -64.87,-40.789 -33.79,0 -57.1,17.481 -57.1,52.445 0,31.465 20.59,50.106 60.21,55.547 l 54.77,7.379 c 7.38,1.168 7.77,8.156 7.77,13.598 0,27.578 -15.15,40.394 -42.34,40.394 -26.03,0 -44.67,-8.929 -56.72,-31.464 l -4.27,0 2.33,42.343" style="fill:#555658;fill-opacity:1;fill-rule:nonzero;stroke:none"/><path id="path38" d="m 1900.03,350.547 c 0,13.211 -4.66,16.703 -17.87,17.48 l 0,3.11 c 17.09,5.051 38.46,12.429 52.44,17.48 -0.78,-8.547 -1.17,-21.758 -1.17,-31.078 l 0.79,0 c 10.09,19.031 28.74,31.078 49.72,31.078 37.29,0 62.15,-21.758 62.15,-68.367 l 0,-95.168 c 0,-11.656 3.1,-16.707 17.86,-18.258 l 0,-5.441 c -7.37,0.781 -17.86,2.332 -26.8,2.332 -6.6,0 -19.81,-1.551 -26.8,-2.332 0.77,7.769 2.33,16.703 2.33,25.25 l 0,99.832 c 0,28.746 -14.76,38.066 -33.02,38.066 -25.64,0 -46.23,-22.531 -46.23,-55.547 l 0,-87.402 c 0,-9.32 10.11,-13.594 20.98,-14.758 l 0,-5.441 c -13.21,1.164 -23.69,2.332 -37.68,2.332 -13.98,0 -24.47,-1.168 -37.68,-2.332 l 0,5.441 c 10.88,1.164 20.98,5.438 20.98,14.758 l 0,128.965" style="fill:#555658;fill-opacity:1;fill-rule:nonzero;stroke:none"/><path id="path40" d="m 2090.76,384.73 25.25,0 0,30.692 c 14.76,5.043 25.64,15.144 33.41,25.633 l 0,-56.325 52.82,0 0,-19.421 -52.82,0 0,-115.758 c 0,-17.867 3.1,-32.629 20.98,-32.629 12.04,0 23.3,4.273 33.4,11.652 l -3.5,-22.14 c -11.65,-5.438 -24.08,-8.938 -36.9,-8.938 -35.35,0 -47.39,15.156 -47.39,48.563 l 0,119.25 -25.25,0 0,19.421" style="fill:#555658;fill-opacity:1;fill-rule:nonzero;stroke:none"/><path id="path42" d="m 1042.96,796.312 c 0,16.083 -6.9,20.68 -29.29,24.122 l 0,8.043 c 16.08,0 32.73,-3.446 48.82,-3.446 15.5,0 28.14,3.446 42.5,3.446 l 195.27,-268.211 1.15,0 0,207.902 c 0,38.484 -9.19,47.102 -40.2,52.266 l 0,8.043 c 16.08,0 32.16,-3.446 48.25,-3.446 18.94,0 37.9,3.446 56.85,3.446 l 0,-8.043 c -22.4,-3.442 -29.28,-8.039 -29.28,-24.122 l 0,-338.859 -33.89,0 -223.42,307.844 -1.16,0 0,-247.543 c 0,-38.477 9.19,-47.09 40.21,-52.266 l 0,-8.035 c -16.08,0 -32.16,3.445 -48.24,3.445 -18.96,0 -37.91,-3.445 -56.86,-3.445 l 0,8.035 c 22.39,3.45 29.29,8.047 29.29,24.133 l 0,306.691" style="fill:#555658;fill-opacity:1;fill-rule:nonzero;stroke:none"/><path id="path44" d="m 1633.43,632.051 c 0,44.222 -28.72,73.515 -74.09,73.515 -43.07,0 -78.68,-31.586 -83.28,-73.515 l 157.37,0 z M 1472.61,603.34 c -0.57,-65.477 44.23,-112.578 110.85,-112.578 29.29,0 46.53,5.176 93.05,37.91 l -4.02,-37.332 c -27.57,-24.699 -68.35,-39.629 -117.75,-39.629 -80.4,0 -134.97,59.734 -134.97,143.008 0,79.832 58.58,139.57 139,139.57 87.3,0 130.94,-51.695 130.94,-130.949 l -217.1,0" style="fill:#555658;fill-opacity:1;fill-rule:nonzero;stroke:none"/><path id="path46" d="m 1716.18,465.488 c 12.63,1.731 20.67,5.754 29.86,19.532 l 71.8,105.683 -60.88,98.207 c -16.09,25.848 -20.69,29.293 -34.46,31.59 l 0,8.039 c 18.37,-1.723 37.33,-3.441 55.71,-3.441 16.65,0 32.73,1.718 49.96,3.441 l 0,-8.039 c -19.52,-1.719 -22.97,-6.316 -22.97,-11.484 0,-5.172 5.74,-16.086 16.08,-32.164 l 28.72,-45.954 41.35,65.481 c 3.45,5.168 5.17,9.766 5.17,14.359 0,6.891 -3.45,9.762 -17.8,9.762 l 0,8.039 c 14.35,-1.723 29.86,-3.441 44.79,-3.441 10.92,0 22.4,1.718 33.31,3.441 l 0,-8.039 c -17.22,-1.719 -28.71,-17.227 -37.32,-29.863 l -54,-82.129 78.12,-124.641 c 4.01,-6.883 10.91,-15.496 28.71,-18.379 l 0,-8.035 c -22.39,1.727 -41.35,3.445 -59.73,3.445 -17.23,0 -33.88,-1.718 -54.56,-3.445 l 0,8.035 c 22.4,0 26.99,4.602 26.99,13.215 0,5.742 -6.31,17.801 -25.27,47.098 l -28.14,43.078 -32.16,-52.844 c -14.93,-24.695 -21.25,-35.039 -21.25,-39.629 0,-6.316 1.72,-9.765 24.12,-10.918 l 0,-8.035 c -12.64,1.727 -24.7,3.445 -37.33,3.445 -16.09,0 -32.74,-1.718 -48.82,-3.445 l 0,8.035" style="fill:#555658;fill-opacity:1;fill-rule:nonzero;stroke:none"/><path id="path48" d="m 1986.14,728.539 37.33,0 0,45.379 c 21.83,7.465 37.9,22.394 49.4,37.902 l 0,-83.281 78.1,0 0,-28.715 -78.1,0 0,-171.152 c 0,-26.426 4.59,-48.242 31.01,-48.242 17.81,0 34.46,6.32 49.39,17.226 l -5.17,-32.734 c -17.23,-8.047 -35.6,-13.211 -54.56,-13.211 -52.27,0 -70.07,22.402 -70.07,71.797 l 0,176.316 -37.33,0 0,28.715" style="fill:#555658;fill-opacity:1;fill-rule:nonzero;stroke:none"/><path id="path50" d="m 2200.97,538.027 24.39,-120.961 C 2143.53,388.492 1643.28,288.758 897.441,221.582 520.965,197.496 448.422,179.68 354.301,242.051 c -120.039,79.543 -98.262,361.285 177.996,532.832 9.203,25.383 20.348,29.722 32.004,53.594 C 102.184,606.281 -62.9023,385.156 20.9648,197.496 130.965,-48.6406 372.348,-25.8086 914.301,58.0273 1366.31,134.695 2188.11,342.816 2239.18,365.07 l 25.12,-123.019 396.67,295.976 -460,0" style="fill:#0b3f64;fill-opacity:1;fill-rule:nonzero;stroke:none"/><path id="path52" d="m 474.441,465.488 c 22.403,3.45 29.293,8.047 29.293,24.133 l 0,306.691 c 0,16.083 -6.89,20.68 -29.293,24.122 l 0,8.043 c 12.067,0 35.614,-3.446 57.438,-3.446 21.824,0 45.371,3.446 57.433,3.446 l 0,-8.043 c -22.398,-3.442 -29.289,-8.039 -29.289,-24.122 l 0,-306.691 c 0,-16.086 6.891,-20.683 29.289,-24.133 l 0,-8.035 c -12.062,0 -35.609,3.445 -57.433,3.445 -21.824,0 -45.371,-3.445 -57.438,-3.445 l 0,8.035" style="fill:#0b3f64;fill-opacity:1;fill-rule:nonzero;stroke:none"/><path id="path54" d="m 743.258,792.867 -52.84,0 c -32.16,0 -48.246,-10.336 -58.582,-62.027 l -11.488,0 c 4.019,31.586 7.468,62.601 9.187,94.191 l 283.727,0 c 1.722,-31.59 5.172,-62.605 9.187,-94.191 l -11.484,0 c -10.34,51.691 -26.418,62.027 -58.582,62.027 l -52.844,0 0,-294.058 c 0,-19.532 6.895,-29.871 36.188,-33.321 l 0,-8.035 c -22.403,0 -47.098,3.445 -64.329,3.445 -17.23,0 -41.925,-3.445 -64.324,-3.445 l 0,8.035 c 29.293,3.45 36.184,13.789 36.184,33.321 l 0,294.058" style="fill:#0b3f64;fill-opacity:1;fill-rule:nonzero;stroke:none"/><path id="path56" d="m 567.891,200.309 c -7.067,-1.887 -14.094,-2.813 -20.832,-2.813 -10.258,0 -17.786,0.711 -23.055,1.883 l 43.887,0.93" style="fill:#fff;fill-opacity:1;fill-rule:nonzero;stroke:none"/><path id="path58" d="m 775.82,213.398 c -15.535,-10.453 -34.894,-15.902 -56.297,-15.902 -15.32,0 -29.253,3.207 -41.367,9.074 l 97.664,6.828" style="fill:#fff;fill-opacity:1;fill-rule:nonzero;stroke:none"/><path id="path60" d="m 1010.09,232.148 0,-7.066 c 0,-11.656 3.1,-16.707 17.86,-18.258 l 0,-5.441 c -7.37,0.781 -17.86,2.332 -26.8,2.332 -6.599,0 -19.806,-1.551 -26.802,-2.332 0.777,7.769 2.336,16.703 2.336,25.25 l 0,2.297 -79.243,-7.348 c 0,-9.32 10.094,-13.594 20.973,-14.758 l 0,-5.441 c -13.211,1.164 -23.699,2.332 -37.68,2.332 -13.98,0 -24.468,-1.168 -37.683,-2.332 l 0,5.441 c 9.98,1.071 19.304,4.75 20.773,12.551 0.137,0.699 0,-0.773 0,0" style="fill:#fff;fill-opacity:1;fill-rule:nonzero;stroke:none"/><path id="path62" d="m 1074.2,238.543 c 13.82,-17.887 33.37,-21.621 53.98,-21.621 29.52,0 45.06,12.43 45.06,29.519 0,0.868 -0.85,2.36 -0.06,2.508 4.04,0.746 28.78,4.231 28.72,3.156 -1.75,-34.515 -31.37,-54.609 -80.72,-54.609 -19.41,0 -39.23,4.668 -56.32,13.598 l -2.02,26.293 11.36,1.156" style="fill:#fff;fill-opacity:1;fill-rule:nonzero;stroke:none"/><path id="path64" d="m 1285.89,261.645 0,-14.813 c 0,-12.039 6.99,-25.25 27.58,-25.25 26.19,0 42.82,18.211 48.97,49.203 l 36.1,4.477 0,-50.18 c 0,-11.656 3.1,-16.707 17.86,-18.258 l 0,-5.441 c -7.38,0.781 -17.86,2.332 -26.8,2.332 -6.6,0 -19.81,-1.551 -26.8,-2.332 0.77,7.769 2.33,16.703 2.33,25.25 l 0,10.879 -0.78,0 c -9.32,-25.25 -28.74,-40.016 -57.1,-40.016 -25.25,0 -54.77,14.371 -54.77,56.328 l 0,3.957 33.41,3.864" style="fill:#fff;fill-opacity:1;fill-rule:nonzero;stroke:none"/><path id="path66" d="m 1504.2,288.891 0,-67.309 c 0,-9.32 10.1,-13.594 20.97,-14.758 l 0,-5.441 c -13.2,1.164 -23.69,2.332 -37.67,2.332 -13.99,0 -24.48,-1.168 -37.69,-2.332 l 0,5.441 c 10.88,1.164 20.98,5.438 20.98,14.758 l 0,62.91 33.41,4.399" style="fill:#fff;fill-opacity:1;fill-rule:nonzero;stroke:none"/><path id="path68" d="m 1609.86,303.438 0,-53.887 c 0,-17.867 3.1,-32.629 20.98,-32.629 12.04,0 23.3,4.273 33.4,11.652 l -1.9,-12.058 -63.85,-15.039 c -16.02,6.464 -22.04,20.961 -22.04,44.582 l 0,52.683 33.41,4.696" style="fill:#fff;fill-opacity:1;fill-rule:nonzero;stroke:none"/><path id="path70" d="m 1757.85,286.449 c -27.19,-4.66 -38.46,-15.922 -38.46,-34.566 0,-8.699 2.45,-15.34 6.72,-20.153 6.21,-7.007 16.27,-10.148 28.25,-10.148 20.43,0 34.32,12.031 42.64,27.262 6.7,12.265 9.8,26.601 9.8,38.386 l 0,7.774 -48.95,-8.555 z m -66.07,-62.953 c -4.15,7.063 -5.79,16.102 -5.79,26.445 0,31.465 20.59,50.106 60.21,55.547 l 54.77,7.379 c 7.38,1.168 7.77,8.156 7.77,13.598 0,2.453 -0.12,4.785 -0.36,7.004 l 29.99,4.886 c 0.95,-5.289 1.44,-11.054 1.44,-17.332 l 0,-61.703" style="fill:#fff;fill-opacity:1;fill-rule:nonzero;stroke:none"/><path id="path72" d="m 2028.8,372.109 c 11,-11.261 17.29,-28.418 17.29,-51.859 l 0,-9.062 -33.41,-8.586 0,23.863 c 0,25.152 -11.3,35.433 -26.36,37.609 -2.15,0.313 -4.38,0.457 -6.66,0.457 -7.42,0 -14.41,-1.883 -20.6,-5.363 -15.23,-8.551 -25.63,-26.719 -25.63,-50.184 l 0,-26.445 -33.4,-8.344 0,74.539" style="fill:#fff;fill-opacity:1;fill-rule:nonzero;stroke:none"/><path id="path74" d="m 2090.76,384.73 25.25,0 0,6.622 33.41,5.757 0,-12.379 52.82,0 0,-19.421 -52.82,0 0,-26.821 -33.41,-8.98 0,35.801 -25.25,0 0,19.421" style="fill:#fff;fill-opacity:1;fill-rule:nonzero;stroke:none"/></g></g></g></g></svg>